<svg width="41" height="36" viewBox="0 0 41 36" fill="none" xmlns="http://www.w3.org/2000/svg">
<path fill-rule="evenodd" clip-rule="evenodd" d="M29.0086 1.60549C34.2922 1.60549 38.5764 5.90537 38.5764 11.2083C38.5764 13.9328 37.4449 16.3877 35.6292 18.1363L20.1775 33.7228L4.44523 17.8547C2.79457 16.1287 1.77717 13.7897 1.77717 11.2083C1.77717 5.90386 6.06138 1.60549 11.345 1.60549C15.3246 1.60549 18.7354 4.04535 20.1775 7.51537C21.6196 4.04535 25.0305 1.60549 29.0101 1.60549H29.0086ZM29.0086 0C25.4897 0 22.2574 1.64013 20.176 4.34355C18.0962 1.64013 14.8639 0 11.3435 0C5.18503 0 0.176025 5.02883 0.176025 11.2083C0.176025 14.112 1.28197 16.8682 3.28977 18.9677L20.176 36L36.7622 19.2704C38.953 17.1588 40.176 14.2882 40.176 11.2098C40.176 5.02882 35.1655 0.00150609 29.0086 0.00150609V0Z" fill="#C71222"/>
</svg>
