<svg width="40" height="38" viewBox="0 0 40 38" fill="none" xmlns="http://www.w3.org/2000/svg">
<path fill-rule="evenodd" clip-rule="evenodd" d="M29.5917 14.5509C26.8678 14.5509 24.0228 17.0098 20.6856 17.359V15.9379C20.7046 12.4479 23.3225 8.85056 27.6973 8.85056H28.5268C32.5522 8.85056 36.6904 5.66755 37.1324 0.300049H35.7045C35.2774 4.77772 31.8545 7.42548 28.5268 7.42548H27.6973C22.5215 7.42548 19.308 11.8013 19.2618 15.8877H19.2591V15.942C19.2591 15.9529 19.2577 15.9651 19.2577 15.9773H19.2591V17.3603C15.9218 17.0112 13.0769 14.5523 10.3544 14.5523C7.42239 14.5523 0 20.3626 0 31.7511C0 37.518 3.89614 37.7001 4.39251 37.7001C4.42651 37.7001 4.44419 37.7001 4.44419 37.7001C6.86347 37.7001 9.0978 36.5385 11.8897 33.7481C14.6816 30.9577 15.7981 30.2268 17.8216 30.2268C18.6281 30.2268 19.5977 30.2268 19.9159 30.2268C19.9825 30.2268 20.0315 30.2268 20.0315 30.2268C20.3483 30.2268 21.3193 30.2268 22.1257 30.2268C24.1507 30.2268 25.2658 30.9591 28.0577 33.7481C30.8496 36.5372 33.0825 37.7001 35.5032 37.7001C35.5032 37.7001 35.5209 37.7001 35.5549 37.7001C36.0499 37.7001 39.946 37.518 39.946 31.7511C39.946 20.3626 32.525 14.5523 29.593 14.5523L29.5917 14.5509ZM34.8678 35.5L34.8342 35.4987H34.8005C32.7899 35.4987 30.8857 34.4678 28.431 32.0521C25.7193 29.382 24.2497 28.2105 21.5622 28.2105H17.3042C14.6167 28.2105 13.1471 29.382 10.4354 32.0521C7.98072 34.4678 6.07646 35.4987 4.06588 35.4987L4.06857 35.4947L4.01474 35.4987C3.32571 35.4987 1.07962 35.1807 1.07962 31.0861C1.07962 20.4718 8.10049 15.7 9.91459 15.7C10.9804 15.7 12.2441 16.2593 13.5831 16.8516C15.2909 17.6069 17.2261 18.4629 19.4453 18.4802C21.6403 18.4629 23.5755 17.6056 25.2846 16.8516C26.6236 16.2593 27.8873 15.7 28.9532 15.7C30.7646 15.7 37.7868 20.4718 37.7868 31.0861C37.7868 35.182 35.5407 35.4987 34.8678 35.5Z" fill="#C71222"/>
<path fill-rule="evenodd" clip-rule="evenodd" d="M12.0918 20.1H10.5803V23.18H7.55737V24.72H10.5803V27.8H12.0918V24.72H15.1147V23.18H12.0918V20.1Z" fill="#C71222"/>
<path fill-rule="evenodd" clip-rule="evenodd" d="M26.9912 21.2C25.7987 21.2 24.8313 22.1839 24.8313 23.4C24.8313 24.6146 25.7987 25.6 26.9912 25.6C28.1837 25.6 29.1498 24.6146 29.1498 23.4C29.1498 22.1839 28.1837 21.2 26.9912 21.2ZM26.4507 23.4C26.153 23.4 25.9109 23.1525 25.9109 22.8505C25.9109 22.5464 26.154 22.3 26.4507 22.3C26.7474 22.3 26.9905 22.5464 26.9905 22.8505C26.9905 23.1535 26.7485 23.4 26.4507 23.4Z" fill="#C71222"/>
<path fill-rule="evenodd" clip-rule="evenodd" d="M32.3893 23.4C31.1968 23.4 30.2294 24.384 30.2294 25.6C30.2294 26.816 31.1968 27.8 32.3893 27.8C33.5832 27.8 34.5479 26.8146 34.5479 25.6C34.5479 24.384 33.5818 23.4 32.3893 23.4ZM31.8493 25.6C31.5519 25.6 31.309 25.3526 31.309 25.0495C31.309 24.7464 31.5519 24.5 31.8493 24.5C32.1478 24.5 32.3886 24.7464 32.3886 25.0495C32.3886 25.3526 32.1478 25.6 31.8493 25.6Z" fill="#C71222"/>
</svg>
