<svg width="22" height="36" viewBox="0 0 22 36" fill="none" xmlns="http://www.w3.org/2000/svg">
<path fill-rule="evenodd" clip-rule="evenodd" d="M19.8574 0.00756836H2.14118C1.14493 0.00756836 0.336182 0.816318 0.336182 1.81257V34.1888C0.336182 35.1863 1.14493 35.9938 2.14118 35.9938H19.8574C20.8537 35.9938 21.6624 35.1863 21.6624 34.1888V1.81257C21.6624 0.816318 20.8537 0.00756836 19.8574 0.00756836ZM20.3299 34.1888C20.3299 34.4488 20.1187 34.6601 19.8587 34.6601H2.14243C1.88243 34.6601 1.67118 34.4488 1.67118 34.1888V28.0013H20.3312V34.1888H20.3299ZM20.3299 26.6676H1.66993V5.36507H20.3299V26.6676ZM20.3299 4.03257H1.66993V1.81257C1.66993 1.55257 1.88118 1.34007 2.14118 1.34007H19.8574C20.1174 1.34007 20.3287 1.55257 20.3287 1.81257V4.03257H20.3299Z" fill="#C71222"/>
</svg>
