<svg width="29" height="32" viewBox="0 0 29 32" fill="none" xmlns="http://www.w3.org/2000/svg">
<path fill-rule="evenodd" clip-rule="evenodd" d="M21.6954 23.6672C21.6954 18.867 21.6954 13.4005 21.6954 11.4004C21.6954 7.66655 19.0199 2.6001 14.4636 0C9.90729 2.6001 7.2318 7.66655 7.2318 11.4667C7.2318 13.4668 7.2318 18.9332 7.2318 23.7334L0 32H28.9286L21.6968 23.6659L21.6954 23.6672ZM7.5 31H3.21429L7.5 26V31ZM20.3558 31H8.57143V11.8438C8.57143 8.8506 10.6333 4.52673 14.4643 2C18.2939 4.52798 20.3571 8.7845 20.3571 11.8438V31H20.3558ZM21.4286 26L25.7143 31H21.4286C21.4286 29.8351 21.4286 28.055 21.4286 26Z" fill="#C71222"/>
</svg>
