<svg width="40" height="40" viewBox="0 0 40 40" fill="none" xmlns="http://www.w3.org/2000/svg">
<path fill-rule="evenodd" clip-rule="evenodd" d="M38.7391 8.3375H33.3281V3.76562C33.3281 1.69062 31.6469 0.0078125 29.5703 0.0078125H3.76721C1.69221 0.0078125 0.00939941 1.69062 0.00939941 3.76562V38.7391C0.00939941 39.4313 0.570337 39.9922 1.26252 39.9922H38.7407C39.4328 39.9922 39.9938 39.4313 39.9938 38.7391V9.59062C39.9938 8.89844 39.4328 8.3375 38.7407 8.3375H38.7391ZM3.76565 1.67344H29.5688C30.7219 1.67344 31.661 2.6125 31.661 3.76562V8.3375H1.67346V3.76562C1.67346 2.6125 2.61252 1.67344 3.76565 1.67344ZM38.3266 38.3266H1.67502V10.0047H38.3266V38.3266Z" fill="#C71222"/>
<path fill-rule="evenodd" clip-rule="evenodd" d="M26.6641 24.1656C26.6641 26.4656 28.5297 28.3297 30.8297 28.3297C33.1297 28.3297 34.9937 26.4656 34.9937 24.1656C34.9937 21.8656 33.1297 20 30.8297 20C28.5297 20 26.6641 21.8641 26.6641 24.1656ZM33.3281 24.1656C33.3281 25.5422 32.2078 26.6625 30.8297 26.6625C29.4516 26.6625 28.3297 25.5422 28.3297 24.1656C28.3297 22.7875 29.4516 21.6672 30.8297 21.6672C32.2078 21.6672 33.3281 22.7875 33.3281 24.1656Z" fill="#C71222"/>
</svg>
